<svg xmlns="http://www.w3.org/2000/svg" width="501" height="498" viewBox="0 0 501 498" version="1.1"><path d="M 69.955 135.545 L 52.515 153.007 100.757 201.257 C 127.291 227.795, 149 249.802, 149 250.163 C 149 250.523, 127.400 272.383, 101 298.741 C 74.600 325.099, 53 347.083, 53 347.593 C 53 348.846, 86.257 382, 87.514 382 C 88.059 382, 118.189 352.314, 154.469 316.031 L 220.432 250.063 155.466 185.272 C 119.735 149.637, 89.801 119.942, 88.948 119.282 C 87.638 118.270, 84.672 120.810, 69.955 135.545 M 184.419 135.398 L 166.625 153.077 215.308 201.797 L 263.990 250.517 215.498 299.002 L 167.007 347.486 184.243 364.743 C 193.722 374.234, 201.935 382, 202.492 382 C 203.808 382, 334 251.811, 334 250.494 C 334 249.944, 304.348 219.845, 268.106 183.606 L 202.213 117.718 184.419 135.398 M 298.995 135.505 L 281.512 153.009 330.505 201.755 L 379.497 250.500 331.002 201.750 L 282.507 153 299.755 135.752 L 317.003 118.505 382.749 184.251 L 448.496 249.998 383.001 315.499 C 346.979 351.525, 317.187 381, 316.797 381 C 316.407 381, 308.589 373.641, 299.424 364.648 L 282.761 348.295 284.591 345.398 L 286.422 342.500 284.211 344.405 C 282.995 345.453, 282 346.808, 282 347.416 C 282 349.078, 315.598 382.303, 316.844 381.872 C 317.804 381.541, 442.634 257.498, 447.449 252.092 L 449.398 249.903 383.452 183.952 C 347.181 147.678, 317.275 118, 316.992 118 C 316.710 118, 308.611 125.877, 298.995 135.505 M 184.996 136.504 L 168.515 153.008 216.758 201.258 C 243.291 227.795, 265 249.967, 265 250.530 C 265 251.092, 243.400 273.091, 217 299.417 C 190.600 325.743, 169.009 347.556, 169.020 347.891 C 169.031 348.226, 176.476 355.904, 185.565 364.954 L 202.091 381.407 267.796 315.684 L 333.500 249.960 268.391 184.980 C 232.581 149.241, 202.876 120, 202.380 120 C 201.883 120, 194.061 127.427, 184.996 136.504 M 373.842 255.276 C 371.454 257.627, 368.850 260.440, 368.056 261.526 C 367.262 262.612, 369.399 260.814, 372.806 257.531 C 376.213 254.249, 379 251.436, 379 251.281 C 379 250.455, 377.768 251.409, 373.842 255.276 M 362.890 266.250 C 361.715 268.488, 361.720 268.490, 363.854 266.595 C 366.238 264.479, 366.456 264, 365.035 264 C 364.505 264, 363.539 265.012, 362.890 266.250 M 355.132 273.599 C 352.730 276.073, 350.957 278.290, 351.192 278.526 C 351.428 278.761, 353.827 276.714, 356.523 273.977 C 359.219 271.240, 360.992 269.023, 360.462 269.051 C 359.933 269.079, 357.534 271.126, 355.132 273.599 M 346.980 281.524 C 345.048 283.853, 346.426 284.291, 348.494 282.006 C 349.493 280.903, 349.845 280, 349.277 280 C 348.710 280, 347.676 280.686, 346.980 281.524 M 334.980 293.524 C 333.048 295.853, 334.426 296.291, 336.494 294.006 C 337.493 292.903, 337.845 292, 337.277 292 C 336.710 292, 335.676 292.686, 334.980 293.524 M 329.861 298.914 C 328.562 299.967, 327.761 301.090, 328.079 301.410 C 328.398 301.730, 329.714 300.869, 331.004 299.496 C 333.787 296.533, 333.179 296.224, 329.861 298.914 M 323.500 305 C 322.505 306.100, 322.140 307, 322.690 307 C 323.240 307, 324.505 306.100, 325.500 305 C 326.495 303.900, 326.860 303, 326.310 303 C 325.760 303, 324.495 303.900, 323.500 305 M 318.861 309.967 C 317.562 311.048, 316.993 311.948, 317.595 311.967 C 318.197 311.985, 319.505 311.100, 320.500 310 C 322.816 307.441, 321.915 307.423, 318.861 309.967 M 311.980 316.524 C 310.048 318.853, 311.426 319.291, 313.494 317.006 C 314.493 315.903, 314.845 315, 314.277 315 C 313.710 315, 312.676 315.686, 311.980 316.524 M 307.762 321.073 C 306.807 321.630, 305.496 323.074, 304.849 324.281 C 303.916 326.026, 304.324 325.863, 306.837 323.492 C 310.812 319.740, 311.030 319.169, 307.762 321.073 M 297.996 330.730 C 295.536 333.257, 294.418 334.841, 295.512 334.249 C 297.984 332.910, 303.512 327.179, 302.911 326.578 C 302.667 326.334, 300.455 328.202, 297.996 330.730 M 288.980 339.524 C 288.284 340.362, 287.916 341.249, 288.161 341.494 C 288.406 341.739, 289.366 341.054, 290.294 339.970 C 291.221 338.887, 291.590 338, 291.113 338 C 290.635 338, 289.676 338.686, 288.980 339.524" stroke="none" fill="#9d9d9d" fill-rule="evenodd"/><path d="M 299.496 136.004 L 282.515 153.007 330.757 201.257 C 357.291 227.795, 379 249.942, 379 250.473 C 379 251.005, 357.400 272.963, 331 299.269 C 304.600 325.575, 283 347.428, 283 347.831 C 283 348.758, 315.860 381, 316.805 381 C 317.190 381, 346.978 351.525, 383 315.500 L 448.494 250 383 184.500 C 346.978 148.475, 317.274 119, 316.992 119 C 316.709 119, 308.836 126.652, 299.496 136.004 M 184.996 136.504 L 168.515 153.008 216.758 201.258 C 243.291 227.795, 265 249.967, 265 250.530 C 265 251.092, 243.400 273.091, 217 299.417 C 190.600 325.743, 169.009 347.556, 169.020 347.891 C 169.031 348.226, 176.476 355.904, 185.565 364.954 L 202.091 381.407 267.796 315.684 L 333.500 249.960 268.391 184.980 C 232.581 149.241, 202.876 120, 202.380 120 C 201.883 120, 194.061 127.427, 184.996 136.504" stroke="none" fill="#282828" fill-rule="evenodd"/></svg>